<?xml version="1.0" encoding="UTF-8" standalone="no"?>
<!-- Created with Inkscape (http://www.inkscape.org/) -->

<svg
   xmlns:dc="http://purl.org/dc/elements/1.1/"
   xmlns:cc="http://creativecommons.org/ns#"
   xmlns:rdf="http://www.w3.org/1999/02/22-rdf-syntax-ns#"
   xmlns:svg="http://www.w3.org/2000/svg"
   xmlns="http://www.w3.org/2000/svg"
   xmlns:sodipodi="http://sodipodi.sourceforge.net/DTD/sodipodi-0.dtd"
   xmlns:inkscape="http://www.inkscape.org/namespaces/inkscape"
   width="9in"
   height="8in"
   viewBox="0 0 810.00001 720.00001"
   id="svg2"
   version="1.1"
   inkscape:version="0.91 r13725"
   sodipodi:docname="high-level-diagram.svg">
  <defs
     id="defs4">
    <marker
       inkscape:stockid="Arrow2Lend"
       orient="auto"
       refY="0"
       refX="0"
       id="Arrow2Lend"
       style="overflow:visible"
       inkscape:isstock="true">
      <path
         id="path4280"
         style="fill:#000000;fill-opacity:1;fill-rule:evenodd;stroke:#000000;stroke-width:0.625;stroke-linejoin:round;stroke-opacity:1"
         d="M 8.7185878,4.0337352 -2.2072895,0.01601326 8.7185884,-4.0017078 c -1.7454984,2.3720609 -1.7354408,5.6174519 -6e-7,8.035443 z"
         transform="matrix(-1.1,0,0,-1.1,-1.1,0)"
         inkscape:connector-curvature="0" />
    </marker>
    <marker
       inkscape:stockid="Arrow2Lend"
       orient="auto"
       refY="0"
       refX="0"
       id="Arrow2Lend-3"
       style="overflow:visible"
       inkscape:isstock="true">
      <path
         inkscape:connector-curvature="0"
         id="path4280-6"
         style="fill:#000000;fill-opacity:1;fill-rule:evenodd;stroke:#000000;stroke-width:0.625;stroke-linejoin:round;stroke-opacity:1"
         d="M 8.7185878,4.0337352 -2.2072895,0.01601326 8.7185884,-4.0017078 c -1.7454984,2.3720609 -1.7354408,5.6174519 -6e-7,8.035443 z"
         transform="matrix(-1.1,0,0,-1.1,-1.1,0)" />
    </marker>
    <marker
       inkscape:stockid="Arrow2Lend"
       orient="auto"
       refY="0"
       refX="0"
       id="Arrow2Lend-3-3"
       style="overflow:visible"
       inkscape:isstock="true">
      <path
         inkscape:connector-curvature="0"
         id="path4280-6-6"
         style="fill:#000000;fill-opacity:1;fill-rule:evenodd;stroke:#000000;stroke-width:0.625;stroke-linejoin:round;stroke-opacity:1"
         d="M 8.7185878,4.0337352 -2.2072895,0.01601326 8.7185884,-4.0017078 c -1.7454984,2.3720609 -1.7354408,5.6174519 -6e-7,8.035443 z"
         transform="matrix(-1.1,0,0,-1.1,-1.1,0)" />
    </marker>
    <marker
       inkscape:stockid="Arrow2Lend"
       orient="auto"
       refY="0"
       refX="0"
       id="Arrow2Lend-0"
       style="overflow:visible"
       inkscape:isstock="true">
      <path
         inkscape:connector-curvature="0"
         id="path4280-62"
         style="fill:#000000;fill-opacity:1;fill-rule:evenodd;stroke:#000000;stroke-width:0.625;stroke-linejoin:round;stroke-opacity:1"
         d="M 8.7185878,4.0337352 -2.2072895,0.01601326 8.7185884,-4.0017078 c -1.7454984,2.3720609 -1.7354408,5.6174519 -6e-7,8.035443 z"
         transform="matrix(-1.1,0,0,-1.1,-1.1,0)" />
    </marker>
    <marker
       inkscape:stockid="Arrow2Lend"
       orient="auto"
       refY="0"
       refX="0"
       id="Arrow2Lend-3-8"
       style="overflow:visible"
       inkscape:isstock="true">
      <path
         inkscape:connector-curvature="0"
         id="path4280-6-7"
         style="fill:#000000;fill-opacity:1;fill-rule:evenodd;stroke:#000000;stroke-width:0.625;stroke-linejoin:round;stroke-opacity:1"
         d="M 8.7185878,4.0337352 -2.2072895,0.01601326 8.7185884,-4.0017078 c -1.7454984,2.3720609 -1.7354408,5.6174519 -6e-7,8.035443 z"
         transform="matrix(-1.1,0,0,-1.1,-1.1,0)" />
    </marker>
    <marker
       inkscape:stockid="Arrow2Lend"
       orient="auto"
       refY="0"
       refX="0"
       id="Arrow2Lend-9"
       style="overflow:visible"
       inkscape:isstock="true">
      <path
         inkscape:connector-curvature="0"
         id="path4280-2"
         style="fill:#000000;fill-opacity:1;fill-rule:evenodd;stroke:#000000;stroke-width:0.625;stroke-linejoin:round;stroke-opacity:1"
         d="M 8.7185878,4.0337352 -2.2072895,0.01601326 8.7185884,-4.0017078 c -1.7454984,2.3720609 -1.7354408,5.6174519 -6e-7,8.035443 z"
         transform="matrix(-1.1,0,0,-1.1,-1.1,0)" />
    </marker>
  </defs>
  <sodipodi:namedview
     id="base"
     pagecolor="#ffffff"
     bordercolor="#666666"
     borderopacity="1.0"
     inkscape:pageopacity="0.0"
     inkscape:pageshadow="2"
     inkscape:zoom="1.4"
     inkscape:cx="327.81644"
     inkscape:cy="323.26455"
     inkscape:document-units="px"
     inkscape:current-layer="layer1"
     showgrid="false"
     units="in"
     inkscape:window-width="1920"
     inkscape:window-height="1054"
     inkscape:window-x="1920"
     inkscape:window-y="0"
     inkscape:window-maximized="1" />
  <metadata
     id="metadata7">
    <rdf:RDF>
      <cc:Work
         rdf:about="">
        <dc:format>image/svg+xml</dc:format>
        <dc:type
           rdf:resource="http://purl.org/dc/dcmitype/StillImage" />
        <dc:title />
      </cc:Work>
    </rdf:RDF>
  </metadata>
  <g
     inkscape:label="Layer 1"
     inkscape:groupmode="layer"
     id="layer1"
     transform="translate(0,-332.36215)">
    <flowRoot
       xml:space="preserve"
       id="flowRoot4189"
       style="font-style:normal;font-weight:normal;font-size:40px;line-height:125%;font-family:sans-serif;letter-spacing:0px;word-spacing:0px;fill:#000000;fill-opacity:1;stroke:none;stroke-width:1px;stroke-linecap:butt;stroke-linejoin:miter;stroke-opacity:1"><flowRegion
         id="flowRegion4191"><rect
           id="rect4193"
           width="724.28571"
           height="272.14285"
           x="-63.57143"
           y="327.85715" /></flowRegion><flowPara
         id="flowPara4195" /></flowRoot>    <rect
       style="fill:#d076ff;fill-opacity:1;stroke:#000000;stroke-width:2;stroke-miterlimit:4;stroke-dasharray:none;stroke-opacity:1"
       id="rect4136"
       width="614.58099"
       height="51.723869"
       x="96.069313"
       y="460.82831"
       rx="10"
       ry="10" />
    <flowRoot
       xml:space="preserve"
       id="flowRoot4146"
       style="font-style:normal;font-variant:normal;font-weight:normal;font-stretch:normal;font-size:40px;line-height:125%;font-family:'WenQuanYi Micro Hei Mono';-inkscape-font-specification:'WenQuanYi Micro Hei Mono';text-align:center;letter-spacing:0px;word-spacing:0px;text-anchor:middle;fill:#000000;fill-opacity:1;stroke:none;stroke-width:1px;stroke-linecap:butt;stroke-linejoin:miter;stroke-opacity:1"
       transform="translate(33.859823,246.04741)"><flowRegion
         id="flowRegion4148"><rect
           id="rect4150"
           width="452.14285"
           height="85.714287"
           x="142.85715"
           y="227.14285"
           style="font-style:normal;font-variant:normal;font-weight:normal;font-stretch:normal;font-family:'WenQuanYi Micro Hei Mono';-inkscape-font-specification:'WenQuanYi Micro Hei Mono';text-align:center;text-anchor:middle" /></flowRegion><flowPara
         id="flowPara4152"
         style="font-style:normal;font-variant:normal;font-weight:normal;font-stretch:normal;font-size:20px;font-family:'WenQuanYi Micro Hei Mono';-inkscape-font-specification:'WenQuanYi Micro Hei Mono'">sciota-server</flowPara></flowRoot>    <rect
       style="fill:#76c477;fill-opacity:1;stroke:#000000;stroke-width:2;stroke-miterlimit:4;stroke-dasharray:none;stroke-opacity:1"
       id="rect4136-3"
       width="220.29543"
       height="37.821289"
       x="55.161133"
       y="878.07471"
       rx="10"
       ry="10" />
    <flowRoot
       xml:space="preserve"
       id="flowRoot4146-6"
       style="font-style:normal;font-variant:normal;font-weight:normal;font-stretch:normal;font-size:40px;line-height:125%;font-family:'WenQuanYi Micro Hei Mono';-inkscape-font-specification:'WenQuanYi Micro Hei Mono';text-align:center;letter-spacing:0px;word-spacing:0px;text-anchor:middle;fill:#000000;fill-opacity:1;stroke:none;stroke-width:1px;stroke-linecap:butt;stroke-linejoin:miter;stroke-opacity:1"
       transform="translate(-203.96655,657.42561)"><flowRegion
         id="flowRegion4148-7"><rect
           id="rect4150-5"
           width="452.14285"
           height="85.714287"
           x="142.85715"
           y="227.14285"
           style="font-style:normal;font-variant:normal;font-weight:normal;font-stretch:normal;font-family:'WenQuanYi Micro Hei Mono';-inkscape-font-specification:'WenQuanYi Micro Hei Mono';text-align:center;text-anchor:middle" /></flowRegion><flowPara
         id="flowPara4152-3"
         style="font-style:normal;font-variant:normal;font-weight:normal;font-stretch:normal;font-size:20px;font-family:'WenQuanYi Micro Hei Mono';-inkscape-font-specification:'WenQuanYi Micro Hei Mono'">sciota-firmware</flowPara></flowRoot>    <rect
       style="fill:#76c477;fill-opacity:1;stroke:#000000;stroke-width:2;stroke-miterlimit:4;stroke-dasharray:none;stroke-opacity:1"
       id="rect4136-3-7"
       width="220.29543"
       height="37.821289"
       x="296.66678"
       y="876.85028"
       rx="10"
       ry="10" />
    <flowRoot
       xml:space="preserve"
       id="flowRoot4146-6-9"
       style="font-style:normal;font-variant:normal;font-weight:normal;font-stretch:normal;font-size:40px;line-height:125%;font-family:'WenQuanYi Micro Hei Mono';-inkscape-font-specification:'WenQuanYi Micro Hei Mono';text-align:center;letter-spacing:0px;word-spacing:0px;text-anchor:middle;fill:#000000;fill-opacity:1;stroke:none;stroke-width:1px;stroke-linecap:butt;stroke-linejoin:miter;stroke-opacity:1"
       transform="translate(37.661134,656.14748)"><flowRegion
         id="flowRegion4148-7-2"><rect
           id="rect4150-5-0"
           width="452.14285"
           height="85.714287"
           x="142.85715"
           y="227.14285"
           style="font-style:normal;font-variant:normal;font-weight:normal;font-stretch:normal;font-family:'WenQuanYi Micro Hei Mono';-inkscape-font-specification:'WenQuanYi Micro Hei Mono';text-align:center;text-anchor:middle" /></flowRegion><flowPara
         id="flowPara4152-3-2"
         style="font-style:normal;font-variant:normal;font-weight:normal;font-stretch:normal;font-size:20px;font-family:'WenQuanYi Micro Hei Mono';-inkscape-font-specification:'WenQuanYi Micro Hei Mono'">sciota-dashboard</flowPara></flowRoot>    <rect
       style="fill:#76c477;fill-opacity:1;stroke:#000000;stroke-width:2;stroke-miterlimit:4;stroke-dasharray:none;stroke-opacity:1"
       id="rect4136-3-3"
       width="220.29543"
       height="37.821289"
       x="534.54346"
       y="876.13599"
       rx="10"
       ry="10" />
    <flowRoot
       xml:space="preserve"
       id="flowRoot4146-6-7"
       style="font-style:normal;font-variant:normal;font-weight:normal;font-stretch:normal;font-size:40px;line-height:125%;font-family:'WenQuanYi Micro Hei Mono';-inkscape-font-specification:'WenQuanYi Micro Hei Mono';text-align:center;letter-spacing:0px;word-spacing:0px;text-anchor:middle;fill:#000000;fill-opacity:1;stroke:none;stroke-width:1px;stroke-linecap:butt;stroke-linejoin:miter;stroke-opacity:1"
       transform="translate(275.51827,655.43319)"><flowRegion
         id="flowRegion4148-7-5"><rect
           id="rect4150-5-9"
           width="452.14285"
           height="85.714287"
           x="142.85715"
           y="227.14285"
           style="font-style:normal;font-variant:normal;font-weight:normal;font-stretch:normal;font-family:'WenQuanYi Micro Hei Mono';-inkscape-font-specification:'WenQuanYi Micro Hei Mono';text-align:center;text-anchor:middle" /></flowRegion><flowPara
         id="flowPara4152-3-22"
         style="font-style:normal;font-variant:normal;font-weight:normal;font-stretch:normal;font-size:20px;font-family:'WenQuanYi Micro Hei Mono';-inkscape-font-specification:'WenQuanYi Micro Hei Mono'">sciota-cli</flowPara></flowRoot>    <path
       style="fill:none;fill-rule:evenodd;stroke:#000000;stroke-width:2;stroke-linecap:butt;stroke-linejoin:miter;stroke-miterlimit:4;stroke-dasharray:none;stroke-opacity:1;marker-end:url(#Arrow2Lend)"
       d="m 145.50702,847.5475 0,-302.85715"
       id="path4297"
       inkscape:connector-curvature="0" />
    <path
       style="fill:none;fill-rule:evenodd;stroke:#000000;stroke-width:2;stroke-linecap:butt;stroke-linejoin:miter;stroke-miterlimit:4;stroke-dasharray:none;stroke-opacity:1;marker-end:url(#Arrow2Lend-3)"
       d="m 171.3994,553.34694 0,302.85714"
       id="path4297-7"
       inkscape:connector-curvature="0" />
    <text
       xml:space="preserve"
       style="font-style:normal;font-weight:normal;font-size:40px;line-height:125%;font-family:sans-serif;letter-spacing:0px;word-spacing:0px;fill:#000000;fill-opacity:1;stroke:none;stroke-width:1px;stroke-linecap:butt;stroke-linejoin:miter;stroke-opacity:1"
       x="-835.88385"
       y="133.89415"
       id="text4538"
       sodipodi:linespacing="125%"
       transform="matrix(0,-1,1,0,0,0)"><tspan
         sodipodi:role="line"
         id="tspan4540"
         x="-835.88385"
         y="133.89415"
         style="font-style:normal;font-variant:normal;font-weight:normal;font-stretch:normal;font-size:20px;font-family:'WenQuanYi Micro Hei Mono';-inkscape-font-specification:'WenQuanYi Micro Hei Mono'">cmd: PUT &lt;measurement&gt;</tspan></text>
    <text
       xml:space="preserve"
       style="font-style:normal;font-weight:normal;font-size:40px;line-height:125%;font-family:sans-serif;letter-spacing:0px;word-spacing:0px;fill:#000000;fill-opacity:1;stroke:none;stroke-width:1px;stroke-linecap:butt;stroke-linejoin:miter;stroke-opacity:1"
       x="-763.39032"
       y="193.84073"
       id="text4538-5"
       sodipodi:linespacing="125%"
       transform="matrix(0,-1,1,0,0,0)"><tspan
         sodipodi:role="line"
         id="tspan4540-3"
         x="-763.39032"
         y="193.84073"
         style="font-style:normal;font-variant:normal;font-weight:normal;font-stretch:normal;font-size:20px;font-family:'WenQuanYi Micro Hei Mono';-inkscape-font-specification:'WenQuanYi Micro Hei Mono'">resp: DONE</tspan></text>
    <text
       xml:space="preserve"
       style="font-style:normal;font-weight:normal;font-size:40px;line-height:125%;font-family:sans-serif;letter-spacing:0px;word-spacing:0px;fill:#000000;fill-opacity:1;stroke:none;stroke-width:1px;stroke-linecap:butt;stroke-linejoin:miter;stroke-opacity:1"
       x="-834.62567"
       y="376.17297"
       id="text4538-56"
       sodipodi:linespacing="125%"
       transform="matrix(0,-1,1,0,0,0)"><tspan
         sodipodi:role="line"
         id="tspan4540-2"
         x="-834.62567"
         y="376.17297"
         style="font-style:normal;font-variant:normal;font-weight:normal;font-stretch:normal;font-size:20px;font-family:'WenQuanYi Micro Hei Mono';-inkscape-font-specification:'WenQuanYi Micro Hei Mono'">cmd: GET &lt;measurement&gt;</tspan></text>
    <text
       xml:space="preserve"
       style="font-style:normal;font-weight:normal;font-size:40px;line-height:125%;font-family:sans-serif;letter-spacing:0px;word-spacing:0px;fill:#000000;fill-opacity:1;stroke:none;stroke-width:1px;stroke-linecap:butt;stroke-linejoin:miter;stroke-opacity:1"
       x="-793.48157"
       y="434.55402"
       id="text4538-5-9"
       sodipodi:linespacing="125%"
       transform="matrix(0,-1,1,0,0,0)"><tspan
         sodipodi:role="line"
         id="tspan4540-3-1"
         x="-793.48157"
         y="434.55402"
         style="font-style:normal;font-variant:normal;font-weight:normal;font-stretch:normal;font-size:20px;font-family:'WenQuanYi Micro Hei Mono';-inkscape-font-specification:'WenQuanYi Micro Hei Mono'">resp: &lt;data&gt;</tspan></text>
    <text
       xml:space="preserve"
       style="font-style:normal;font-weight:normal;font-size:40px;line-height:125%;font-family:sans-serif;letter-spacing:0px;word-spacing:0px;fill:#000000;fill-opacity:1;stroke:none;stroke-width:1px;stroke-linecap:butt;stroke-linejoin:miter;stroke-opacity:1"
       x="-840.3111"
       y="609.05127"
       id="text4538-56-2"
       sodipodi:linespacing="125%"
       transform="matrix(0,-1,1,0,0,0)"><tspan
         sodipodi:role="line"
         id="tspan4540-2-7"
         x="-840.3111"
         y="609.05127"
         style="font-style:normal;font-variant:normal;font-weight:normal;font-stretch:normal;font-size:20px;font-family:'WenQuanYi Micro Hei Mono';-inkscape-font-specification:'WenQuanYi Micro Hei Mono'">cmd: EVALUATE &lt;average&gt;</tspan></text>
    <text
       xml:space="preserve"
       style="font-style:normal;font-weight:normal;font-size:40px;line-height:125%;font-family:sans-serif;letter-spacing:0px;word-spacing:0px;fill:#000000;fill-opacity:1;stroke:none;stroke-width:1px;stroke-linecap:butt;stroke-linejoin:miter;stroke-opacity:1"
       x="-776.18805"
       y="670.83191"
       id="text4538-5-9-0"
       sodipodi:linespacing="125%"
       transform="matrix(0,-1,1,0,0,0)"><tspan
         sodipodi:role="line"
         id="tspan4540-3-1-9"
         x="-776.18805"
         y="670.83191"
         style="font-style:normal;font-variant:normal;font-weight:normal;font-stretch:normal;font-size:20px;font-family:'WenQuanYi Micro Hei Mono';-inkscape-font-specification:'WenQuanYi Micro Hei Mono'">resp: &lt;result&gt;</tspan></text>
    <path
       style="fill:none;fill-rule:evenodd;stroke:#000000;stroke-width:2;stroke-linecap:butt;stroke-linejoin:miter;stroke-miterlimit:4;stroke-dasharray:none;stroke-opacity:1;marker-end:url(#Arrow2Lend-0)"
       d="m 385.05648,847.71913 0,-302.85715"
       id="path4297-6"
       inkscape:connector-curvature="0" />
    <path
       style="fill:none;fill-rule:evenodd;stroke:#000000;stroke-width:2;stroke-linecap:butt;stroke-linejoin:miter;stroke-miterlimit:4;stroke-dasharray:none;stroke-opacity:1;marker-end:url(#Arrow2Lend-3-3)"
       d="m 410.94886,553.51857 0,302.85714"
       id="path4297-7-1"
       inkscape:connector-curvature="0" />
    <path
       style="fill:none;fill-rule:evenodd;stroke:#000000;stroke-width:2;stroke-linecap:butt;stroke-linejoin:miter;stroke-miterlimit:4;stroke-dasharray:none;stroke-opacity:1;marker-end:url(#Arrow2Lend-9)"
       d="m 623.62791,839.86198 0,-302.85715"
       id="path4297-0"
       inkscape:connector-curvature="0" />
    <path
       style="fill:none;fill-rule:evenodd;stroke:#000000;stroke-width:2;stroke-linecap:butt;stroke-linejoin:miter;stroke-miterlimit:4;stroke-dasharray:none;stroke-opacity:1;marker-end:url(#Arrow2Lend-3-8)"
       d="m 649.52029,545.66142 0,302.85714"
       id="path4297-7-2"
       inkscape:connector-curvature="0" />
    <path
       id="path5170"
       d="m 447.01778,380.7865 c -1.1636,0.002 -2.3254,0.0712 -3.4805,0.20994 -3.1357,-10.2107 -12.5551,-17.18882 -23.2361,-17.21067 -2.6588,-0.003 -5.2986,0.43886 -7.8111,1.30423 -6.2201,-13.44992 -20.961,-20.75957 -35.4311,-17.56972 -14.4721,3.19077 -24.7721,16.01947 -24.7616,30.83728 0,2.56098 0.3201,5.11152 0.9461,7.59272 -13.7871,2.10502 -23.63787,14.46158 -22.61285,28.37128 1.02303,13.91064 12.57695,24.6932 26.52365,24.75493 l 89.8635,0 c 16.0964,0 29.1444,-13.04906 29.1444,-29.14546 0,-16.09641 -13.048,-29.14453 -29.1444,-29.14453 z m 0,53.43211 -89.8635,0 c -11.9737,0.0522 -21.758,-9.54576 -21.9365,-21.51857 -0.1776,-11.9728 9.3149,-21.85672 21.2858,-22.16167 0.777,-0.0219 1.4961,-0.41415 1.935,-1.05535 0.4408,-0.64215 0.5462,-1.45433 0.285,-2.18672 -4.8208,-13.79569 2.3501,-28.90324 16.0869,-33.89127 13.7359,-4.98804 28.9299,2.00053 34.0832,15.6756 0.2356,0.63453 0.7238,1.14086 1.3489,1.39923 0.6259,0.25838 1.3299,0.24412 1.9435,-0.0389 2.5429,-1.18266 5.3119,-1.79535 8.1151,-1.79821 9.2409,0.0171 17.1984,6.52596 19.0441,15.5806 0.2641,1.3166 1.5465,2.16773 2.8612,1.90176 1.5834,-0.31728 3.1945,-0.47878 4.8113,-0.48069 13.4138,0 24.2875,10.87471 24.2875,24.28665 0,13.41384 -10.8737,24.28758 -24.2875,24.28758 z m 0,0"
       inkscape:connector-curvature="0" />
    <g
       id="g5093"
       transform="matrix(0.16609518,0,0,0.16609518,604.82833,941.52394)">
      <g
         id="g5039">
        <g
           id="g5041">
          <path
             id="path5043"
             d="m 0,32 0,416 480,0 0,-416 -480,0 z m 448,384 -416,0 0,-352 416,0 0,352 z"
             inkscape:connector-curvature="0" />
        </g>
      </g>
      <g
         id="g5045">
        <g
           id="g5047">
          <rect
             id="rect5049"
             height="32"
             width="128"
             y="288"
             x="208" />
        </g>
      </g>
      <g
         id="g5051">
        <g
           id="g5053">
          <polygon
             id="polygon5055"
             points="102.24,294.24 123.36,315.36 214.56,224 123.36,132.64 102.24,153.76 172.64,224 " />
        </g>
      </g>
      <g
         id="g5057" />
      <g
         id="g5059" />
      <g
         id="g5061" />
      <g
         id="g5063" />
      <g
         id="g5065" />
      <g
         id="g5067" />
      <g
         id="g5069" />
      <g
         id="g5071" />
      <g
         id="g5073" />
      <g
         id="g5075" />
      <g
         id="g5077" />
      <g
         id="g5079" />
      <g
         id="g5081" />
      <g
         id="g5083" />
      <g
         id="g5085" />
    </g>
    <g
       id="g5120"
       transform="matrix(1.5579883,0,0,1.5579883,356.95887,931.53116)">
      <path
         id="path5122"
         d="M 57,34.53 57,14.92 C 60.387,14.432 63,11.519 63,8 63,4.141 59.86,1 56,1 52.14,1 49,4.141 49,8 L 1,8 1,48 31.051,48 c 0.52,8.356 7.465,15 15.949,15 8.822,0 16,-7.178 16,-16 0,-5.039 -2.347,-9.535 -6,-12.47 z M 56,3 c 2.757,0 5,2.243 5,5 0,2.757 -2.243,5 -5,5 -2.757,0 -5,-2.243 -5,-5 0,-2.757 2.243,-5 5,-5 z m -53,7 46.295,0 c 0.239,0.798 0.619,1.533 1.107,2.185 l -6.116,6.116 C 43.894,18.113 43.462,18 43,18 c -0.462,0 -0.894,0.113 -1.285,0.301 L 39.7,16.286 C 39.887,15.894 40,15.462 40,15 c 0,-1.654 -1.346,-3 -3,-3 -1.654,0 -3,1.346 -3,3 0,0.462 0.113,0.894 0.301,1.285 L 29.286,21.3 C 28.894,21.113 28.462,21 28,21 c -1.654,0 -3,1.346 -3,3 0,1.654 1.346,3 3,3 1.654,0 3,-1.346 3,-3 0,-0.462 -0.113,-0.894 -0.301,-1.285 L 35.714,17.7 c 0.392,0.187 0.824,0.3 1.286,0.3 0.462,0 0.894,-0.113 1.285,-0.301 L 40.3,19.714 C 40.113,20.106 40,20.538 40,21 c 0,1.654 1.346,3 3,3 1.654,0 3,-1.346 3,-3 0,-0.462 -0.113,-0.894 -0.301,-1.285 l 6.117,-6.116 c 0.915,0.686 2.001,1.151 3.184,1.322 l 0,18.245 C 52.643,31.797 49.916,31 47,31 42.22,31 37.934,33.118 35,36.453 L 35,32 l -6,0 0,12 2.292,0 c -0.124,0.653 -0.199,1.322 -0.241,2 L 3,46 Z m 40,10 c 0.551,0 1,0.448 1,1 0,0.552 -0.449,1 -1,1 -0.551,0 -1,-0.448 -1,-1 0,-0.552 0.449,-1 1,-1 z m -7,-5 c 0,-0.552 0.449,-1 1,-1 0.551,0 1,0.448 1,1 0,0.552 -0.449,1 -1,1 -0.551,0 -1,-0.448 -1,-1 z m -7,9 c 0,0.552 -0.449,1 -1,1 -0.551,0 -1,-0.448 -1,-1 0,-0.552 0.449,-1 1,-1 0.551,0 1,0.448 1,1 z m 18,31 c -4.411,0 -8,-3.589 -8,-8 0,-4.411 3.589,-8 8,-8 4.411,0 8,3.589 8,8 0,4.411 -3.589,8 -8,8 z M 33,39.271 C 32.521,40.135 32.125,41.048 31.811,42 L 31,42 l 0,-8 2,0 z m 13,-6.22 0,4 c -5.046,0.504 -9,4.773 -9,9.949 0,1.463 0.324,2.85 0.891,4.104 l -3.469,2.003 C 33.52,51.259 33,49.191 33,47 33,39.618 38.747,33.567 46,33.051 Z M 47,61 c -4.814,0 -9.068,-2.443 -11.588,-6.155 l 3.483,-2.011 C 40.713,55.352 43.664,57 47,57 c 3.336,0 6.287,-1.648 8.105,-4.166 l 3.483,2.011 C 56.068,58.557 51.814,61 47,61 Z M 59.578,53.107 56.109,51.104 C 56.676,49.85 57,48.463 57,47 57,41.824 53.046,37.554 48,37.051 l 0,-4 c 7.253,0.516 13,6.567 13,13.949 0,2.191 -0.52,4.259 -1.422,6.107 z"
         inkscape:connector-curvature="0" />
      <path
         id="path5124"
         d="m 47,41 c -3.309,0 -6,2.691 -6,6 0,3.309 2.691,6 6,6 3.309,0 6,-2.691 6,-6 0,-3.309 -2.691,-6 -6,-6 z m 0,10 c -2.206,0 -4,-1.794 -4,-4 0,-2.206 1.794,-4 4,-4 2.206,0 4,1.794 4,4 0,2.206 -1.794,4 -4,4 z"
         inkscape:connector-curvature="0" />
      <path
         id="path5126"
         d="m 5,12 2,0 0,2 -2,0 z"
         inkscape:connector-curvature="0" />
      <path
         id="path5128"
         d="m 9,12 14,0 0,2 -14,0 z"
         inkscape:connector-curvature="0" />
      <path
         id="path5130"
         d="m 5,16 2,0 0,2 -2,0 z"
         inkscape:connector-curvature="0" />
      <path
         id="path5132"
         d="m 9,16 14,0 0,2 -14,0 z"
         inkscape:connector-curvature="0" />
      <path
         id="path5134"
         d="m 5,20 2,0 0,2 -2,0 z"
         inkscape:connector-curvature="0" />
      <path
         id="path5136"
         d="m 9,20 14,0 0,2 -14,0 z"
         inkscape:connector-curvature="0" />
      <path
         id="path5138"
         d="m 5,24 2,0 0,2 -2,0 z"
         inkscape:connector-curvature="0" />
      <path
         id="path5140"
         d="m 9,24 14,0 0,2 -14,0 z"
         inkscape:connector-curvature="0" />
      <path
         id="path5142"
         d="m 5,44 6,0 0,-10 -6,0 z m 2,-8 2,0 0,6 -2,0 z"
         inkscape:connector-curvature="0" />
      <path
         id="path5144"
         d="m 13,44 6,0 0,-8 -6,0 z m 2,-6 2,0 0,4 -2,0 z"
         inkscape:connector-curvature="0" />
      <path
         id="path5146"
         d="m 21,44 6,0 0,-16 -6,0 z m 2,-14 2,0 0,12 -2,0 z"
         inkscape:connector-curvature="0" />
    </g>
    <g
       id="g5524"
       transform="matrix(0.19474854,0,0,0.19474854,115.45312,931.53135)">
      <g
         id="g5464">
        <g
           id="g5466">
          <path
             id="path5468"
             d="m 91.522,56.263 -0.121,0 C 72.882,56.534 57.82,71.828 57.82,90.356 l 0,48.72 -50.284,0 c -4.162,0 -7.536,3.374 -7.536,7.536 0,4.162 3.374,7.536 7.536,7.536 l 50.285,0 0,39.622 -50.285,0 c -4.162,0 -7.536,3.374 -7.536,7.536 0,4.162 3.374,7.536 7.536,7.536 l 50.285,0 0,39.621 -50.285,0 C 3.374,248.464 0,251.838 0,256 c 0,4.162 3.374,7.536 7.536,7.536 l 50.285,0 0,39.621 -50.285,0 c -4.162,0 -7.536,3.374 -7.536,7.536 0,4.162 3.374,7.536 7.536,7.536 l 50.285,0 0,39.622 -50.285,0 c -4.162,0 -7.536,3.374 -7.536,7.536 0,4.162 3.374,7.536 7.536,7.536 l 50.285,0 0,25.77 c 0,4.16 3.376,7.536 7.536,7.536 4.16,0 7.536,-3.376 7.536,-7.536 l 0,-308.336 c 0,-10.34 8.4,-18.87 18.74,-19.031 4.16,-0.06 7.486,-3.477 7.416,-7.647 -0.061,-4.12 -3.417,-7.416 -7.527,-7.416 z"
             inkscape:connector-curvature="0" />
        </g>
      </g>
      <g
         id="g5470">
        <g
           id="g5472">
          <path
             id="path5474"
             d="m 410.168,437.549 -318.244,0 c -7.767,0 -14.68,-4.642 -17.624,-11.827 -1.578,-3.858 -5.969,-5.697 -9.827,-4.12 -3.859,1.578 -5.697,5.979 -4.12,9.827 5.265,12.872 17.655,21.191 31.571,21.191 l 47.153,0 0,51.842 c 0,4.162 3.374,7.536 7.536,7.536 4.162,0 7.536,-3.374 7.536,-7.536 l 0,-51.842 39.622,0 0,51.842 c 0,4.162 3.374,7.536 7.536,7.536 4.162,0 7.536,-3.374 7.536,-7.536 l 0,-51.842 39.621,0 0,51.842 c 0,4.162 3.374,7.536 7.536,7.536 4.162,0 7.536,-3.374 7.536,-7.536 l 0,-51.842 39.621,0 0,51.842 c 0,4.162 3.374,7.536 7.536,7.536 4.162,0 7.536,-3.374 7.536,-7.536 l 0,-51.842 39.622,0 0,51.842 c 0,4.162 3.374,7.536 7.536,7.536 4.162,0 7.536,-3.374 7.536,-7.536 l 0,-51.842 37.245,0 c 4.16,0 7.536,-3.376 7.536,-7.536 0,-4.168 -3.376,-7.535 -7.536,-7.535 z"
             inkscape:connector-curvature="0" />
        </g>
      </g>
      <g
         id="g5476">
        <g
           id="g5478">
          <path
             id="path5480"
             d="m 358.209,128.138 -204.418,0 c -13.284,0 -24.085,10.802 -24.085,24.085 l 0,204.429 c 0,13.284 10.802,24.085 24.085,24.085 l 204.419,0 c 13.284,0 24.085,-10.802 24.085,-24.085 l 0,-204.429 c 0,-13.284 -10.802,-24.085 -24.086,-24.085 z m -213.432,24.085 c 0,-4.974 4.039,-9.013 9.013,-9.013 l 155.885,0 0,78.707 c -13.624,2.944 -24.386,13.706 -27.329,27.331 l -55.536,0 0,-38.645 c 14.238,-2.783 25.01,-15.354 25.01,-30.396 0,-17.072 -13.897,-30.968 -30.978,-30.968 -15.042,0 -27.611,10.771 -30.396,24.999 l -45.669,0 0,-22.015 z m 172.436,83.962 c 11.354,0 20.589,9.244 20.589,20.599 0,11.355 -9.234,20.589 -20.589,20.589 -11.436,0 -20.599,-9.325 -20.599,-20.589 0.001,-11.285 9.189,-20.599 20.599,-20.599 z m -96.371,-40.072 c -8.715,0 -15.906,-7.088 -15.906,-15.906 0,-8.762 7.134,-15.896 15.906,-15.896 8.772,0 15.906,7.134 15.906,15.896 0,8.848 -7.204,15.906 -15.906,15.906 z m -32.546,123.17 c -4.371,-2.452 -7.325,-7.144 -7.325,-12.5 0,-7.908 6.441,-14.339 14.349,-14.339 7.908,0 14.339,6.431 14.339,14.339 -0.001,10.958 -11.853,17.876 -21.363,12.5 z m 60.95,46.382 -50.56,0 0,-29.662 c 14.64,-1.668 26.045,-14.138 26.045,-29.22 0,-16.218 -13.193,-29.411 -29.411,-29.411 -16.228,0 -29.421,13.193 -29.421,29.411 0,12.058 7.295,22.458 17.715,26.989 l 0,31.893 -29.823,0 c -4.974,0 -9.013,-4.049 -9.013,-9.013 l 0,-167.342 46.452,0 c 0.064,0.104 4.114,15.471 20.508,20.509 l 0,46.965 c 0,4.16 3.376,7.536 7.536,7.536 l 29.972,0 0,101.345 z m 117.977,-9.013 c 0,4.964 -4.039,9.013 -9.013,9.013 l -93.892,0 0,-32.59 102.905,0 0,23.577 z m 0,-38.649 -102.905,0 0,-53.683 18.028,0 c 3.467,16.057 17.785,28.125 34.867,28.125 19.664,0 35.661,-15.997 35.661,-35.661 0,-17.082 -12.068,-31.4 -28.125,-34.867 0,0 -0.001,0 -0.002,0 l 0,-78.707 33.462,0 c 4.974,0 9.013,4.039 9.013,9.013 l 0,165.78 z"
             inkscape:connector-curvature="0" />
        </g>
      </g>
      <g
         id="g5482">
        <g
           id="g5484">
          <path
             id="path5486"
             d="m 504.464,208.843 c 4.162,0 7.536,-3.374 7.536,-7.536 0,-4.162 -3.374,-7.536 -7.536,-7.536 l -50.285,0 0,-39.622 50.285,0 c 4.162,0 7.536,-3.374 7.536,-7.536 0,-4.162 -3.374,-7.536 -7.536,-7.536 l -50.285,0 0,-48.72 c 0,-18.8 -15.293,-34.103 -34.103,-34.103 l -47.153,0 0,-48.718 C 372.923,3.374 369.549,0 365.387,0 c -4.162,0 -7.536,3.374 -7.536,7.536 l 0,48.717 -39.622,0 0,-48.717 C 318.229,3.374 314.855,0 310.693,0 c -4.162,0 -7.536,3.374 -7.536,7.536 l 0,48.717 -39.621,0 0,-48.717 C 263.536,3.374 260.162,0 256,0 c -4.162,0 -7.536,3.374 -7.536,7.536 l 0,48.717 -39.621,0 0,-48.717 C 208.843,3.374 205.469,0 201.307,0 c -4.162,0 -7.536,3.374 -7.536,7.536 l 0,48.717 -39.622,0 0,-48.717 C 154.149,3.374 150.775,0 146.613,0 c -4.162,0 -7.536,3.374 -7.536,7.536 l 0,48.717 -17.41,0 c -4.17,0 -7.536,3.376 -7.536,7.536 0,4.16 3.366,7.536 7.536,7.536 39.477,0 266.815,0 298.409,0 10.5,0 19.031,8.541 19.031,19.031 l 0,328.162 c 0,5.255 -2.09,10.149 -5.898,13.776 -3.014,2.874 -3.135,7.647 -0.261,10.651 1.487,1.557 3.467,2.341 5.456,2.341 1.869,0 3.738,-0.693 5.205,-2.08 6.813,-6.501 10.571,-15.273 10.571,-24.688 l 0,-45.595 50.285,0 c 4.162,0 7.536,-3.374 7.536,-7.536 0,-4.162 -3.374,-7.536 -7.536,-7.536 l -50.285,0 0,-39.622 50.285,0 c 4.162,0 7.536,-3.374 7.536,-7.536 0,-4.162 -3.374,-7.536 -7.536,-7.536 l -50.285,0 0,-39.621 50.285,0 c 4.162,0 7.536,-3.374 7.536,-7.536 0,-4.162 -3.374,-7.536 -7.536,-7.536 l -50.285,0 0,-39.621 50.284,0 z"
             inkscape:connector-curvature="0" />
        </g>
      </g>
      <g
         id="g5488" />
      <g
         id="g5490" />
      <g
         id="g5492" />
      <g
         id="g5494" />
      <g
         id="g5496" />
      <g
         id="g5498" />
      <g
         id="g5500" />
      <g
         id="g5502" />
      <g
         id="g5504" />
      <g
         id="g5506" />
      <g
         id="g5508" />
      <g
         id="g5510" />
      <g
         id="g5512" />
      <g
         id="g5514" />
      <g
         id="g5516" />
    </g>
  </g>
</svg>
